<svg xmlns="http://www.w3.org/2000/svg" width="22" height="15" fill="none"><path fill="#464646" d="M.099 13.18c.141.319.565.7.882.792.544.162 1.158.063 1.518-.255.071-.063 1.914-2.195 4.081-4.73 2.175-2.527 3.968-4.603 3.996-4.596.028 0 1.857 2.118 4.074 4.71 4.384 5.125 4.278 5.026 5.012 5.026.488 0 1.017-.269 1.278-.65.247-.353.318-1.073.148-1.475-.056-.142-2.202-2.711-4.772-5.719C11.183.283 11.332.43 10.562.43c-.742 0-.579-.162-5.634 5.72C2.372 9.121.226 11.677.141 11.839c-.17.332-.19 1.003-.042 1.342Z"/></svg>