<svg xmlns="http://www.w3.org/2000/svg" width="22" height="14" fill="none"><path fill="#464646" d="M.099.946C.24.628.664.247.981.156 1.525-.008 2.14.091 2.5.41c.07.063 1.913 2.195 4.08 4.73 2.175 2.527 3.968 4.603 3.996 4.596.028 0 1.857-2.118 4.074-4.71C19.034-.098 18.928 0 19.662 0c.488 0 1.017.268 1.278.65.247.353.318 1.073.148 1.475-.056.141-2.202 2.711-4.772 5.719-5.133 6-4.984 5.853-5.754 5.853-.741 0-.579.162-5.634-5.719C2.372 5.006.226 2.45.141 2.288-.029 1.956-.049 1.285.1.946Z"/></svg>