<svg xmlns="http://www.w3.org/2000/svg" width="30" height="21" fill="none"><path fill="#464646" d="M.14 18.828c.2.448.797.986 1.245 1.116.767.229 1.634.09 2.142-.359.1-.09 2.7-3.098 5.757-6.674 3.068-3.566 5.598-6.494 5.638-6.484.04 0 2.62 2.988 5.748 6.643 6.185 7.232 6.036 7.093 7.072 7.093.687 0 1.434-.379 1.803-.917.348-.498.448-1.514.209-2.081-.08-.2-3.108-3.825-6.734-8.069C15.78.63 15.988.838 14.902.838c-1.046 0-.817-.229-7.949 8.069C3.348 13.1.32 16.707.2 16.935c-.24.469-.27 1.415-.06 1.893Z"/></svg>