<svg xmlns="http://www.w3.org/2000/svg" width="30" height="21" fill="none"><path fill="#464646" d="M29.745 2.173c-.2-.448-.797-.986-1.245-1.116-.767-.229-1.634-.09-2.142.359-.1.09-2.7 3.098-5.758 6.674-3.067 3.566-5.598 6.494-5.637 6.484-.04 0-2.62-2.988-5.748-6.644C3.03.7 3.18.838 2.143.838c-.687 0-1.434.379-1.803.916-.349.499-.448 1.515-.21 2.082.08.2 3.109 3.825 6.734 8.069 7.242 8.467 7.033 8.257 8.119 8.257 1.046 0 .816.23 7.948-8.068 3.606-4.194 6.634-7.8 6.754-8.029.239-.468.269-1.414.06-1.892Z"/></svg>