<svg xmlns="http://www.w3.org/2000/svg" width="53" height="53" fill="none"><circle cx="26.457" cy="26.457" r="25.722" stroke="#D9D9D9" stroke-width="1.47"/><path fill="#D9D9D9" d="M19.86 12.664h12.088c4.605 0 8.347 3.742 8.347 8.347v12.088a8.347 8.347 0 0 1-8.347 8.347H19.859c-4.605 0-8.346-3.742-8.346-8.347V21.011a8.347 8.347 0 0 1 8.346-8.347Zm-.288 2.878a5.18 5.18 0 0 0-5.181 5.181v12.664a5.177 5.177 0 0 0 5.18 5.18h12.665a5.18 5.18 0 0 0 5.18-5.18V20.723a5.177 5.177 0 0 0-5.18-5.18H19.572Zm13.887 2.159a1.799 1.799 0 1 1 0 3.597 1.799 1.799 0 0 1 0-3.597Zm-7.555 2.159a7.196 7.196 0 1 1 0 14.39 7.196 7.196 0 0 1 0-14.39Zm0 2.878a4.317 4.317 0 1 0 0 8.634 4.317 4.317 0 0 0 0-8.634Z"/></svg>