<svg xmlns="http://www.w3.org/2000/svg" width="22" height="22" fill="none"><path fill="#D9D9D9" d="M6.152 0h8.91a6.157 6.157 0 0 1 6.153 6.152v8.91a6.152 6.152 0 0 1-6.152 6.153h-8.91A6.157 6.157 0 0 1 0 15.063v-8.91A6.152 6.152 0 0 1 6.152 0ZM5.94 2.121a3.819 3.819 0 0 0-3.819 3.82v9.334a3.816 3.816 0 0 0 3.82 3.818h9.334a3.819 3.819 0 0 0 3.818-3.818V5.94a3.816 3.816 0 0 0-3.818-3.819H5.94Zm10.236 1.592a1.326 1.326 0 1 1 0 2.652 1.326 1.326 0 0 1 0-2.652Zm-5.569 1.59a5.304 5.304 0 1 1 0 10.608 5.304 5.304 0 0 1 0-10.607Zm0 2.122a3.182 3.182 0 1 0 0 6.365 3.182 3.182 0 0 0 0-6.365Z"/></svg>