<svg xmlns="http://www.w3.org/2000/svg" width="53" height="53" fill="none"><circle cx="26.457" cy="26.5" r="25.722" stroke="#D9D9D9" stroke-width="1.47"/><path fill="#D9D9D9" d="M38.965 14.767c-.218.066-1.136.403-2.047.753-1.624.614-8.848 3.354-20.766 7.87-3.32 1.255-6.22 2.37-6.437 2.47-.588.277-.931.56-1.156.944a1.605 1.605 0 0 0 .33 1.994c.403.363.793.528 4.167 1.756l3.143 1.149.336.76c1.968 4.542 3.077 7.077 3.17 7.262.185.37.766.918 1.182 1.116.33.152.462.178 1.01.178.587 0 .66-.013 1.129-.237.528-.251.64-.35 2.47-2.08l1.056-.997 3.48 2.39c3.941 2.707 3.948 2.714 4.958 2.66 1.09-.059 1.908-.686 2.284-1.769.073-.198 1.202-5.56 2.516-11.911 2.324-11.251 2.39-11.568 2.364-12.189-.02-.58-.04-.686-.251-1.096a2.033 2.033 0 0 0-1.202-1.043c-.436-.139-1.228-.132-1.736.02Zm1.142 2.251c.013.192-.792 4.22-2.33 11.654-1.295 6.246-2.378 11.45-2.417 11.561-.106.337-.344.516-.621.47-.165-.027-1.842-1.143-5.83-3.883-3.077-2.113-5.645-3.89-5.705-3.949-.099-.099.277-.462 5.203-4.978 2.925-2.68 5.375-4.972 5.447-5.084.145-.25.165-.7.033-.957-.185-.357-.41-.496-.825-.529l-.39-.026-7.896 4.232-7.89 4.233-2.939-1.077c-1.618-.587-2.945-1.082-2.945-1.109 0-.02.97-.403 2.166-.852 1.188-.449 7.626-2.892 14.308-5.427 8.96-3.4 12.208-4.602 12.38-4.589.224.013.231.02.25.31Zm-14.05 10.195c0 .02-1.235 1.162-2.74 2.542-1.506 1.387-2.774 2.582-2.82 2.66-.06.113-.093.648-.119 1.896l-.033 1.743-1.003-2.318c-.555-1.267-1.01-2.337-1.01-2.37 0-.026 1.736-.977 3.849-2.113 4.126-2.212 3.875-2.08 3.875-2.04Zm-3.25 7.91c.173.112.694.475 1.163.806l.858.594-.336.297c-.185.165-.727.673-1.202 1.122l-.865.813v-1.922c0-1.056.02-1.921.04-1.921s.171.092.343.211Z"/></svg>