<svg xmlns="http://www.w3.org/2000/svg" width="53" height="53" fill="none"><circle cx="26.457" cy="26.544" r="25.722" stroke="#D9D9D9" stroke-width="1.47"/><path fill="#D9D9D9" d="M8.182 17.328c-.79.137-1.542.691-1.846 1.352-.137.289-.167.501-.167 1.086v.737l.782 1.58c3.699 7.466 7.945 12.509 13.922 16.534 1.693 1.139 2.377 1.382 3.903 1.382 1.557-.008 2.613-.387 3.593-1.291 1.078-1.003 1.299-1.656 1.299-3.881.007-1.405.022-1.542.159-1.716a1.03 1.03 0 0 1 .38-.29c.463-.189.577-.075 3.053 3.092 1.268 1.618 2.453 3.106 2.635 3.304.183.197.524.455.76.57l.425.212h3.076c2.992 0 3.084-.008 3.433-.167a2.596 2.596 0 0 0 1.238-1.246c.19-.425.205-.531.175-1.124-.023-.463-.076-.736-.19-.957-.091-.167-1.344-1.944-2.788-3.941-2.18-3.015-2.627-3.684-2.627-3.889 0-.266.121-.448 3.668-5.347.866-1.192 1.648-2.316 1.74-2.506.25-.501.25-1.625 0-2.142-.358-.729-1.041-1.215-1.884-1.352-.6-.098-4.952-.098-5.567 0-.608.107-1.01.304-1.39.707-.16.174-1.345 2.027-2.628 4.116-1.846 3-2.385 3.82-2.582 3.934-.289.167-.524.137-.828-.129l-.213-.182-.038-3.296-.038-3.289-.197-.418c-.395-.85-1.003-1.298-1.945-1.443-.357-.06-1.693-.076-3.911-.06-3.06.03-3.395.045-3.744.174-.517.19-1.246.927-1.428 1.443-.167.486-.167 1.261 0 1.74.167.463.76 1.131 1.17 1.306l.296.136v1.535c0 .843-.023 1.587-.046 1.655-.083.22-.25.122-.66-.395-1.337-1.67-2.271-3.28-3.244-5.551-.478-1.11-.858-1.557-1.572-1.838-.425-.175-.516-.175-3.136-.19-1.481-.008-2.849.007-3.038.045Zm5.612 1.777c.144.076.281.282.456.669 1.375 3.038 2.111 4.314 3.494 6.053.79.987 1.07 1.177 1.807 1.207.479.03.615.008.965-.166a1.83 1.83 0 0 0 .926-1.026c.076-.197.099-.942.107-2.802v-2.522h-.54c-.509 0-.554-.015-.797-.258-.281-.281-.327-.532-.152-.873.198-.38.258-.388 3.889-.388 3.63 0 3.69.008 3.888.395.06.122.091 1.101.114 3.365.023 3.638.023 3.607.676 4.329a2.462 2.462 0 0 0 3.425.19c.259-.228.912-1.238 2.72-4.185 1.708-2.772 2.445-3.912 2.59-3.988.166-.083.706-.106 2.84-.106h2.628l.258.258c.334.334.334.6.007 1.079-.144.205-1.344 1.876-2.673 3.714-1.33 1.838-2.46 3.455-2.522 3.6-.265.63-.243 1.55.046 2.119.084.16 1.33 1.921 2.772 3.919 2.894 4.017 2.84 3.911 2.408 4.39l-.22.25-2.651.023c-2.02.015-2.689-.008-2.833-.084-.106-.053-1.284-1.488-2.62-3.182-1.337-1.701-2.53-3.197-2.658-3.326-.593-.616-1.725-.851-2.575-.532a2.494 2.494 0 0 0-1.383 1.314c-.204.463-.212.501-.242 2.18-.03 1.595-.046 1.731-.206 2.05-.539 1.071-2.172 1.762-3.592 1.52-.691-.115-1.253-.388-2.362-1.14-5.818-3.942-9.805-8.704-13.382-15.987-.608-1.23-.676-1.459-.494-1.777.205-.373.281-.38 3.068-.388 2.12 0 2.643.023 2.818.107Z"/></svg>