<svg width="22" height="15" viewBox="0 0 22 15" fill="none" xmlns="http://www.w3.org/2000/svg">
<g id="Black">
<path id="Vector" d="M0.0989608 13.1808C0.24016 13.4985 0.663763 13.8797 0.981464 13.9715C1.52509 14.1339 2.13931 14.035 2.49937 13.7173C2.56997 13.6538 4.41264 11.5217 6.58007 8.98711C8.75456 6.45962 10.5478 4.38397 10.576 4.39103C10.6043 4.39103 12.4328 6.50904 14.6497 9.10007C19.034 14.2257 18.9281 14.1268 19.6623 14.1268C20.1495 14.1268 20.679 13.8585 20.9402 13.4773C21.1873 13.1243 21.2579 12.4042 21.0884 12.0017C21.032 11.8605 18.8857 9.29069 16.3159 6.28312C11.1832 0.282093 11.3315 0.430353 10.5619 0.430353C9.82063 0.430353 9.98301 0.267972 4.92802 6.14898C2.37229 9.12125 0.22604 11.677 0.141321 11.8394C-0.0281201 12.1712 -0.0493012 12.8419 0.0989608 13.1808Z" fill="#464646"/>
</g>
</svg>
