<svg width="22" height="14" viewBox="0 0 22 14" fill="none" xmlns="http://www.w3.org/2000/svg">
<g id="Black">
<path id="Vector" d="M0.0989608 0.94618C0.24016 0.628478 0.663763 0.247237 0.981464 0.155456C1.52509 -0.00692459 2.13931 0.0919159 2.49937 0.409617C2.56997 0.473158 4.41264 2.60529 6.58007 5.13984C8.75456 7.66733 10.5478 9.74298 10.576 9.73592C10.6043 9.73592 12.4328 7.61791 14.6497 5.02688C19.034 -0.0987044 18.9281 0.000136205 19.6623 0.000136237C20.1495 0.000136259 20.679 0.268418 20.9402 0.649659C21.1873 1.00266 21.2579 1.72278 21.0884 2.12521C21.032 2.26641 18.8857 4.83626 16.3159 7.84383C11.1832 13.8449 11.3315 13.6966 10.5619 13.6966C9.82063 13.6966 9.98301 13.859 4.92802 7.97797C2.37229 5.0057 0.22604 2.44997 0.141321 2.28759C-0.0281201 1.95576 -0.0493012 1.28506 0.0989608 0.94618Z" fill="#464646"/>
</g>
</svg>
