<svg width="30" height="21" viewBox="0 0 30 21" fill="none" xmlns="http://www.w3.org/2000/svg">
<g id="Black">
<path id="Vector" d="M0.140089 18.8279C0.339308 19.2762 0.936964 19.8141 1.38521 19.9436C2.1522 20.1727 3.0188 20.0332 3.52681 19.585C3.62642 19.4953 6.22622 16.4871 9.28423 12.9111C12.3522 9.34513 14.8823 6.41662 14.9221 6.42658C14.962 6.42658 17.5418 9.41486 20.6696 13.0705C26.8553 20.3022 26.7059 20.1627 27.7418 20.1627C28.4292 20.1627 29.1762 19.7842 29.5448 19.2463C29.8934 18.7483 29.993 17.7322 29.754 17.1645C29.6743 16.9652 26.6461 13.3395 23.0204 9.09611C15.7788 0.629311 15.9879 0.838492 14.9022 0.838492C13.8563 0.838492 14.0854 0.609389 6.95337 8.90685C3.34751 13.1004 0.319385 16.7063 0.199854 16.9354C-0.0392076 17.4035 -0.0690919 18.3498 0.140089 18.8279Z" fill="#464646"/>
</g>
</svg>
