<svg width="30" height="21" viewBox="0 0 30 21" fill="none" xmlns="http://www.w3.org/2000/svg">
<g id="Black">
<path id="Vector" d="M29.7447 2.17285C29.5455 1.72461 28.9478 1.18672 28.4996 1.05722C27.7326 0.828123 26.866 0.967576 26.358 1.41582C26.2583 1.50547 23.6585 4.51367 20.6005 8.08965C17.5326 11.6557 15.0025 14.5842 14.9626 14.5742C14.9228 14.5742 12.3429 11.5859 9.21518 7.93027C3.02944 0.69863 3.17886 0.838083 2.14292 0.838083C1.45561 0.838083 0.708543 1.2166 0.339989 1.75449C-0.0086441 2.25254 -0.108254 3.26855 0.130809 3.83633C0.210496 4.03554 3.23862 7.66133 6.8644 11.9047C14.106 20.3715 13.8968 20.1623 14.9826 20.1623C16.0285 20.1623 15.7994 20.3914 22.9314 12.0939C26.5373 7.90039 29.5654 4.29453 29.6849 4.06543C29.924 3.59726 29.9539 2.65097 29.7447 2.17285Z" fill="#464646"/>
</g>
</svg>
