<svg width="53" height="53" viewBox="0 0 53 53" fill="none" xmlns="http://www.w3.org/2000/svg">
<circle cx="26.4567" cy="26.4567" r="25.7218" stroke="#D9D9D9" stroke-width="1.46981"/>
<path d="M19.8594 12.6641H31.9479C36.553 12.6641 40.2946 16.4057 40.2946 21.0108V33.0992C40.2946 35.3129 39.4152 37.4359 37.8499 39.0013C36.2846 40.5666 34.1615 41.446 31.9479 41.446H19.8594C15.2543 41.446 11.5127 37.7043 11.5127 33.0992V21.0108C11.5127 18.7971 12.3921 16.6741 13.9574 15.1088C15.5227 13.5435 17.6458 12.6641 19.8594 12.6641ZM19.5716 15.5423C18.1976 15.5423 16.8799 16.0881 15.9083 17.0597C14.9367 18.0312 14.3909 19.349 14.3909 20.723V33.387C14.3909 36.2508 16.7078 38.5678 19.5716 38.5678H32.2357C33.6097 38.5678 34.9274 38.022 35.899 37.0504C36.8706 36.0788 37.4164 34.7611 37.4164 33.387V20.723C37.4164 17.8592 35.0995 15.5423 32.2357 15.5423H19.5716ZM33.4589 17.7009C33.936 17.7009 34.3935 17.8904 34.7309 18.2278C35.0682 18.5651 35.2578 19.0227 35.2578 19.4998C35.2578 19.9769 35.0682 20.4344 34.7309 20.7718C34.3935 21.1091 33.936 21.2986 33.4589 21.2986C32.9818 21.2986 32.5243 21.1091 32.1869 20.7718C31.8496 20.4344 31.66 19.9769 31.66 19.4998C31.66 19.0227 31.8496 18.5651 32.1869 18.2278C32.5243 17.8904 32.9818 17.7009 33.4589 17.7009ZM25.9036 19.8595C27.812 19.8595 29.6422 20.6176 30.9916 21.967C32.341 23.3165 33.0991 25.1467 33.0991 27.055C33.0991 28.9634 32.341 30.7936 30.9916 32.143C29.6422 33.4924 27.812 34.2505 25.9036 34.2505C23.9953 34.2505 22.1651 33.4924 20.8157 32.143C19.4663 30.7936 18.7082 28.9634 18.7082 27.055C18.7082 25.1467 19.4663 23.3165 20.8157 21.967C22.1651 20.6176 23.9953 19.8595 25.9036 19.8595ZM25.9036 22.7377C24.7586 22.7377 23.6605 23.1926 22.8509 24.0022C22.0412 24.8119 21.5864 25.91 21.5864 27.055C21.5864 28.2 22.0412 29.2982 22.8509 30.1078C23.6605 30.9174 24.7586 31.3723 25.9036 31.3723C27.0487 31.3723 28.1468 30.9174 28.9564 30.1078C29.7661 29.2982 30.2209 28.2 30.2209 27.055C30.2209 25.91 29.7661 24.8119 28.9564 24.0022C28.1468 23.1926 27.0487 22.7377 25.9036 22.7377Z" fill="#D9D9D9"/>
</svg>
