<svg width="22" height="22" viewBox="0 0 22 22" fill="none" xmlns="http://www.w3.org/2000/svg">
<path id="Vector" d="M6.15231 0H15.0625C18.4569 0 21.2148 2.75793 21.2148 6.15231V15.0625C21.2148 16.6942 20.5667 18.2591 19.4129 19.4129C18.2591 20.5667 16.6942 21.2148 15.0625 21.2148H6.15231C2.75793 21.2148 0 18.4569 0 15.0625V6.15231C0 4.52061 0.648188 2.95575 1.80197 1.80197C2.95575 0.648188 4.52061 0 6.15231 0ZM5.94016 2.12148C4.92738 2.12148 3.95609 2.52381 3.23995 3.23995C2.52381 3.95609 2.12148 4.92738 2.12148 5.94016V15.2747C2.12148 17.3856 3.82928 19.0934 5.94016 19.0934H15.2747C16.2875 19.0934 17.2588 18.691 17.9749 17.9749C18.691 17.2588 19.0934 16.2875 19.0934 15.2747V5.94016C19.0934 3.82928 17.3856 2.12148 15.2747 2.12148H5.94016ZM16.1763 3.7126C16.528 3.7126 16.8652 3.85229 17.1139 4.10095C17.3626 4.34961 17.5023 4.68687 17.5023 5.03853C17.5023 5.39018 17.3626 5.72744 17.1139 5.9761C16.8652 6.22476 16.528 6.36446 16.1763 6.36446C15.8247 6.36446 15.4874 6.22476 15.2387 5.9761C14.9901 5.72744 14.8504 5.39018 14.8504 5.03853C14.8504 4.68687 14.9901 4.34961 15.2387 4.10095C15.4874 3.85229 15.8247 3.7126 16.1763 3.7126ZM10.6074 5.30371C12.0141 5.30371 13.3631 5.86249 14.3577 6.85713C15.3524 7.85177 15.9111 9.20079 15.9111 10.6074C15.9111 12.0141 15.3524 13.3631 14.3577 14.3577C13.3631 15.3524 12.0141 15.9111 10.6074 15.9111C9.20079 15.9111 7.85177 15.3524 6.85713 14.3577C5.86249 13.3631 5.30371 12.0141 5.30371 10.6074C5.30371 9.20079 5.86249 7.85177 6.85713 6.85713C7.85177 5.86249 9.20079 5.30371 10.6074 5.30371ZM10.6074 7.4252C9.76345 7.4252 8.95403 7.76047 8.35725 8.35725C7.76047 8.95403 7.4252 9.76345 7.4252 10.6074C7.4252 11.4514 7.76047 12.2608 8.35725 12.8576C8.95403 13.4544 9.76345 13.7897 10.6074 13.7897C11.4514 13.7897 12.2608 13.4544 12.8576 12.8576C13.4544 12.2608 13.7897 11.4514 13.7897 10.6074C13.7897 9.76345 13.4544 8.95403 12.8576 8.35725C12.2608 7.76047 11.4514 7.4252 10.6074 7.4252Z" fill="#D9D9D9"/>
</svg>
