<svg width="53" height="53" viewBox="0 0 53 53" fill="none" xmlns="http://www.w3.org/2000/svg">
<circle cx="26.4567" cy="26.5001" r="25.7218" stroke="#D9D9D9" stroke-width="1.46981"/>
<path d="M38.9646 14.7669C38.7468 14.833 37.829 15.1697 36.9178 15.5196C35.2936 16.1337 28.0702 18.8738 16.1524 23.39C12.8312 24.6445 9.93265 25.7604 9.71476 25.8594C9.12712 26.1367 8.78379 26.4207 8.55929 26.8036C8.18294 27.4639 8.3216 28.2826 8.88943 28.7976C9.29219 29.1608 9.68175 29.3258 13.0557 30.5539L16.1986 31.7028L16.5353 32.4621C18.5029 37.0048 19.6122 39.5402 19.7046 39.7251C19.8895 40.0948 20.4705 40.6428 20.8865 40.8409C21.2166 40.9928 21.3487 41.0192 21.8967 41.0192C22.4844 41.0192 22.557 41.006 23.0258 40.7815C23.554 40.5306 23.6662 40.4315 25.4952 38.7016L26.5516 37.7046L30.0312 40.0948C33.973 42.8019 33.9796 42.8085 34.9898 42.7557C36.0793 42.6963 36.898 42.069 37.2744 40.9862C37.347 40.7881 38.476 35.4267 39.79 29.0749C42.1141 17.824 42.1802 17.507 42.1537 16.8864C42.1339 16.3053 42.1141 16.1997 41.9028 15.7903C41.6387 15.2753 41.2294 14.9188 40.7012 14.7471C40.2654 14.6085 39.4731 14.6151 38.9646 14.7669ZM40.1069 17.0184C40.1201 17.2099 39.3146 21.2376 37.7762 28.6722C36.482 34.9183 35.3992 40.1212 35.3596 40.2335C35.2539 40.5702 35.0162 40.7485 34.7389 40.7023C34.5739 40.6758 32.8968 39.56 28.9088 36.8199C25.8319 34.707 23.2635 32.9309 23.204 32.8715C23.105 32.7724 23.4814 32.4093 28.407 27.8931C31.3319 25.2124 33.7815 22.9212 33.8542 22.809C33.9994 22.5581 34.0192 22.1091 33.8872 21.8516C33.7023 21.4951 33.4778 21.3564 33.0618 21.3234L32.6723 21.297L24.7755 25.5293L16.8853 29.7616L13.9471 28.6854C12.3294 28.0977 11.0023 27.6025 11.0023 27.5761C11.0023 27.5563 11.9729 27.1734 13.168 26.7244C14.3564 26.2754 20.7941 23.8324 27.476 21.297C36.4358 17.8966 39.6843 16.6949 39.856 16.7081C40.0805 16.7213 40.0871 16.7279 40.1069 17.0184ZM26.0564 27.213C26.0564 27.2328 24.8217 28.3751 23.3163 29.755C21.8109 31.1416 20.5432 32.3367 20.4969 32.4159C20.4375 32.5281 20.4045 33.063 20.3781 34.3109L20.3451 36.054L19.3415 33.7364C18.7868 32.4687 18.3313 31.3991 18.3313 31.3661C18.3313 31.3397 20.0678 30.3889 22.1806 29.2532C26.3073 27.0413 26.0564 27.1734 26.0564 27.213ZM22.8079 35.123C22.9796 35.2352 23.5012 35.5984 23.97 35.9285L24.8283 36.5228L24.4916 36.8199C24.3067 36.9849 23.7653 37.4934 23.2899 37.9423L22.4249 38.7545V36.8331C22.4249 35.7767 22.4447 34.9117 22.4645 34.9117C22.4844 34.9117 22.6362 35.0041 22.8079 35.123Z" fill="#D9D9D9"/>
</svg>
