<svg width="53" height="53" viewBox="0 0 53 53" fill="none" xmlns="http://www.w3.org/2000/svg">
<circle cx="26.4567" cy="26.5436" r="25.7218" stroke="#D9D9D9" stroke-width="1.46981"/>
<path d="M8.18159 17.3283C7.39172 17.465 6.63983 18.0194 6.33603 18.6802C6.19932 18.9688 6.16895 19.1814 6.16895 19.7662V20.5029L6.95122 22.0827C10.6499 29.5485 14.8955 34.5915 20.8727 38.6168C22.5663 39.756 23.2499 39.999 24.7764 39.999C26.3334 39.9914 27.3891 39.6117 28.3688 38.7079C29.4473 37.7054 29.6675 37.0522 29.6675 34.8269C29.6751 33.4218 29.6903 33.2851 29.827 33.1105C29.903 33.0041 30.0777 32.875 30.2068 32.8218C30.6701 32.632 30.784 32.7459 33.2599 35.913C34.5283 37.5307 35.7131 39.0193 35.8954 39.2167C36.0776 39.4142 36.4194 39.6724 36.6548 39.7864L37.0802 39.999H40.1561C43.1485 39.999 43.2396 39.9914 43.589 39.8319C44.1206 39.5889 44.5839 39.118 44.827 38.5864C45.0168 38.1611 45.032 38.0547 45.0016 37.4623C44.9788 36.999 44.9257 36.7256 44.8118 36.5054C44.7206 36.3383 43.4675 34.5611 42.0244 32.5636C39.8447 29.5485 39.3966 28.8801 39.3966 28.675C39.3966 28.4092 39.5181 28.2269 43.0649 23.3282C43.9308 22.1358 44.713 21.0118 44.8042 20.8219C45.0548 20.3207 45.0548 19.1966 44.8042 18.6802C44.4472 17.951 43.7637 17.465 42.9206 17.3283C42.3206 17.2295 37.9688 17.2295 37.3536 17.3283C36.746 17.4346 36.3435 17.6321 35.9637 18.0346C35.8042 18.2093 34.6194 20.0624 33.3359 22.151C31.4903 25.151 30.9511 25.9713 30.7536 26.0852C30.465 26.2523 30.2296 26.2219 29.9258 25.9561L29.7131 25.7738L29.6751 22.4776L29.6372 19.189L29.4397 18.7713C29.0448 17.9207 28.4372 17.4726 27.4954 17.3283C27.1384 17.2675 25.8017 17.2523 23.584 17.2675C20.5233 17.2979 20.1891 17.3131 19.8398 17.4422C19.3233 17.6321 18.5942 18.3688 18.4119 18.8852C18.2448 19.3713 18.2448 20.146 18.4119 20.6245C18.579 21.0877 19.1714 21.7561 19.5815 21.9308L19.8777 22.0675V23.6016C19.8777 24.4447 19.8549 25.189 19.8322 25.2573C19.7486 25.4776 19.5815 25.3789 19.1714 24.8624C17.8347 23.1915 16.9005 21.5814 15.9284 19.3105C15.4499 18.2017 15.0702 17.7536 14.3562 17.4726C13.9309 17.2979 13.8398 17.2979 11.2195 17.2827C9.73854 17.2751 8.37146 17.2903 8.18159 17.3283ZM13.7942 19.1055C13.9385 19.1814 14.0752 19.3865 14.2499 19.7738C15.6246 22.8118 16.3613 24.0877 17.7436 25.827C18.5334 26.8143 18.8144 27.0042 19.5511 27.0345C20.0296 27.0649 20.1663 27.0421 20.5157 26.8675C20.9562 26.6548 21.2828 26.2826 21.4423 25.8421C21.5182 25.6447 21.541 24.9004 21.5486 23.0396V20.5181H21.0094C20.5005 20.5181 20.4549 20.5029 20.2119 20.2599C19.9309 19.9789 19.8853 19.7283 20.06 19.3865C20.2575 19.0067 20.3182 18.9991 23.9486 18.9991C27.5789 18.9991 27.6397 19.0067 27.8372 19.3941C27.8979 19.5156 27.9283 20.4953 27.9511 22.7586C27.9739 26.3966 27.9739 26.3662 28.627 27.0877C29.5156 28.0674 31.0574 28.151 32.0523 27.2776C32.3106 27.0497 32.9637 26.0396 34.7713 23.0928C36.4802 20.3207 37.2169 19.1814 37.3612 19.1055C37.5283 19.0219 38.0675 18.9991 40.2017 18.9991H42.8295L43.0877 19.2574C43.4219 19.5915 43.4219 19.8574 43.0953 20.3358C42.951 20.5409 41.751 22.2118 40.4219 24.0497C39.0928 25.8877 37.9612 27.5054 37.9004 27.6497C37.6346 28.2801 37.6574 29.1991 37.946 29.7687C38.0295 29.9282 39.2751 31.6902 40.7181 33.6877C43.6118 37.7054 43.5586 37.599 43.1257 38.0775L42.9054 38.3281L40.2548 38.3509C38.2346 38.3661 37.5662 38.3433 37.4219 38.2674C37.3156 38.2142 36.1384 36.7788 34.8017 35.0851C33.465 33.3839 32.2726 31.8877 32.1435 31.7586C31.5511 31.1434 30.4194 30.9079 29.5688 31.2269C28.9612 31.4548 28.46 31.9332 28.1865 32.5408C27.9815 33.0041 27.9739 33.0421 27.9435 34.7206C27.9131 36.3155 27.8979 36.4522 27.7384 36.7712C27.1992 37.8421 25.5663 38.5332 24.1461 38.2902C23.4549 38.1762 22.8929 37.9028 21.784 37.1509C15.9664 33.2092 11.979 28.4472 8.40184 21.1637C7.79425 19.9333 7.7259 19.7055 7.90818 19.3865C8.11324 19.0143 8.18919 19.0067 10.9765 18.9991C13.0955 18.9991 13.6195 19.0219 13.7942 19.1055Z" fill="#D9D9D9"/>
</svg>
